<svg width="170" height="78" xmlns="http://www.w3.org/2000/svg" xmlns:xlink="http://www.w3.org/1999/xlink" xml:space="preserve" overflow="hidden"><g transform="translate(1 -8)"><g><g><g><g><path d="M64.1117 51.9756 64.1117 60.4146 63.1318 60.4146 63.1318 51.9756ZM67.2171 54.2416 67.2171 55.186C67.58 54.4956 68.3156 54.0838 69.094 54.1354 70.4156 54.1354 71.1357 54.9972 71.1357 56.5907L71.1357 60.4143 70.1546 60.4143 70.1546 56.5197C70.1546 55.4576 69.7534 54.9854 68.8448 54.9854 67.9976 54.932 67.2674 55.5753 67.214 56.4226 67.2095 56.4942 67.2101 56.5661 67.2155 56.6377L67.2155 60.4146 66.2363 60.4146 66.2363 54.2416ZM73.4356 54.2416 75.0883 59.4232 76.7054 54.2416 77.7205 54.2416 75.643 60.4146 74.4862 60.4146 72.3735 54.2416ZM83.9876 59.4351C83.4211 60.2492 82.6302 60.5209 81.6388 60.5209 79.6797 60.5209 78.5818 59.2342 78.5818 57.346 78.5818 55.4454 79.7267 54.1354 81.3909 54.1354 83.0317 54.1354 84.035 55.2922 84.035 57.2043L84.035 57.5229 79.5984 57.5229C79.622 58.4081 79.8226 58.904 80.2475 59.2933 80.6338 59.602 81.1242 59.7498 81.6167 59.7064 82.2822 59.75 82.9173 59.4232 83.269 58.8567ZM83.0317 56.7321C82.9019 55.4691 82.4297 54.9499 81.4027 54.9499 80.4232 54.9499 79.8566 55.5283 79.6323 56.7321ZM86.879 54.2416 86.879 55.186C87.242 54.4956 87.9776 54.0838 88.756 54.1354 90.0775 54.1354 90.7977 54.9972 90.7977 56.5907L90.7977 60.4143 89.8181 60.4143 89.8181 56.5197C89.8181 55.4576 89.4169 54.9854 88.5077 54.9854 87.6608 54.932 86.9309 55.5756 86.8775 56.4226 86.873 56.4942 86.8736 56.5661 86.879 56.6377L86.879 60.4146 85.8995 60.4146 85.8995 54.2416ZM93.3355 54.2416 93.3355 52.6363 94.3148 52.4005 94.3148 54.2416 95.8731 54.2416 95.8731 55.0561 94.3163 55.0561 94.3163 58.8211C94.3163 59.4232 94.5406 59.7064 95.0246 59.7064 95.3302 59.7115 95.6276 59.6068 95.8628 59.4114L96.2388 60.0857C95.8822 60.3834 95.4285 60.5387 94.9642 60.5224 93.961 60.5224 93.3355 59.944 93.3355 59.0114L93.3355 55.0561 92.3908 55.0561 92.3908 54.2416ZM102.636 59.4351C102.069 60.2492 101.278 60.5209 100.287 60.5209 98.3278 60.5209 97.2302 59.2342 97.2302 57.346 97.2302 55.4454 98.3748 54.1354 100.039 54.1354 101.68 54.1354 102.683 55.2922 102.683 57.2043L102.683 57.5229 98.2449 57.5229C98.2689 58.4081 98.4695 58.904 98.8944 59.2933 99.2807 59.602 99.7711 59.75 100.264 59.7064 100.929 59.75 101.564 59.4232 101.916 58.8567ZM101.68 56.7321C101.55 55.4691 101.078 54.9499 100.051 54.9499 99.0713 54.9499 98.5035 55.5283 98.2808 56.7321ZM108.714 59.4232C108.281 60.1303 107.501 60.5497 106.672 60.5209 105.067 60.5209 104.028 59.2581 104.028 57.2987 104.028 55.3869 105.079 54.1354 106.661 54.1354 107.496 54.1163 108.279 54.5435 108.714 55.2567L108.714 51.528 109.694 51.528 109.694 60.4158 108.714 60.4158ZM105.042 57.3579C105.042 58.9158 105.632 59.7064 106.813 59.7064 108.052 59.7064 108.748 58.8448 108.748 57.3342 108.748 55.8584 108.029 54.9499 106.848 54.9499 105.693 54.9499 105.043 55.8232 105.043 57.3579ZM116.044 54.2416 116.044 53.3791C116.044 52.1164 116.717 51.3963 117.874 51.3963 118.262 51.3893 118.646 51.4871 118.983 51.6798L118.735 52.4351C118.488 52.2891 118.207 52.2117 117.921 52.2108 117.354 52.2108 117.024 52.6123 117.024 53.2729L117.024 54.2407 118.44 54.2407 118.44 55.0552 117.024 55.0552 117.024 60.4137 116.044 60.4137 116.044 55.0561 115.159 55.0561 115.159 54.2416ZM124.931 57.3223C124.931 59.1871 123.716 60.5209 122.004 60.5209 120.328 60.5209 119.1 59.1753 119.1 57.3345 119.1 55.4694 120.316 54.1357 122.039 54.1357 123.716 54.1354 124.931 55.4809 124.931 57.3223ZM120.116 57.346C120.116 58.7978 120.847 59.7064 122.004 59.7064 123.173 59.7064 123.916 58.7859 123.916 57.3342 123.916 55.8943 123.172 54.9499 122.039 54.9499 120.847 54.9499 120.116 55.8469 120.116 57.346ZM127.351 54.2416 127.351 55.233C127.752 54.4895 128.283 54.1354 129.003 54.1354 129.354 54.1275 129.7 54.2131 130.006 54.3833L129.605 55.2096C129.388 55.0801 129.138 55.0148 128.885 55.0209 127.929 55.0209 127.351 55.7877 127.351 57.0271L127.351 60.4146 126.371 60.4146 126.371 54.2416ZM136.899 60.2259C136.573 60.4253 136.195 60.5236 135.813 60.5093 134.916 60.5093 134.314 60.1075 134.314 58.88L134.314 51.528 135.294 51.528 135.294 58.9629C135.294 59.5413 135.601 59.6945 135.967 59.6945 136.189 59.7033 136.406 59.632 136.581 59.4939ZM139.46 52.317C139.461 52.6757 139.17 52.9664 138.811 52.9667 138.453 52.967 138.162 52.6763 138.162 52.3176 138.161 51.9589 138.452 51.6682 138.811 51.6679 138.811 51.6679 138.811 51.6679 138.811 51.6679 139.168 51.671 139.457 51.9599 139.46 52.317ZM139.319 54.241 139.319 60.414 138.339 60.414 138.339 54.2416ZM141.88 54.2416 141.88 53.3791C141.88 52.1164 142.552 51.3963 143.709 51.3963 144.098 51.3893 144.481 51.4871 144.819 51.6798L144.571 52.4351C144.324 52.2891 144.043 52.2117 143.756 52.2108 143.19 52.2108 142.859 52.6123 142.859 53.2729L142.859 54.2407 144.276 54.2407 144.276 55.0552 142.859 55.0552 142.859 60.4137 141.88 60.4137 141.88 55.0561 140.994 55.0561 140.994 54.2416ZM150.366 59.4351C149.799 60.2492 149.009 60.5209 148.017 60.5209 146.058 60.5209 144.96 59.2342 144.96 57.346 144.96 55.4454 146.105 54.1354 147.77 54.1354 149.41 54.1354 150.413 55.2922 150.413 57.2043L150.413 57.5229 145.975 57.5229C145.999 58.4081 146.2 58.904 146.625 59.2933 147.011 59.602 147.501 59.75 147.994 59.7064 148.659 59.75 149.294 59.4232 149.646 58.8567ZM149.41 56.7321C149.28 55.4691 148.808 54.9499 147.781 54.9499 146.801 54.9499 146.234 55.5283 146.011 56.7321Z" fill="#000000" fill-rule="nonzero" fill-opacity="1" transform="matrix(1 0 0 1.00282 -1 9.05397)"/><path d="M75.5016 33.472C77.1279 32.8432 78.1924 31.2703 78.1721 29.527 78.1721 25.9764 75.6533 24.2164 72.1939 24.2164L63.1203 24.2164 63.1203 43.5166 72.9829 43.5166C76.0175 43.5166 78.9914 41.3924 78.9914 38.1453 78.9914 34.2913 75.5016 33.5023 75.5016 33.472ZM67.8543 28.2221 71.3745 28.2221C72.3228 28.1649 73.1382 28.8873 73.1953 29.8357 73.1995 29.9047 73.1995 29.9739 73.1953 30.0428 73.1759 31.0361 72.3553 31.8254 71.3621 31.8063 71.336 31.8057 71.3096 31.8044 71.2835 31.8029L67.8543 31.8029 67.8543 28.2221ZM71.4049 39.4805 67.8543 39.4805 67.8543 35.6873 71.3138 35.6873C73.0436 35.6873 73.8629 36.4459 73.8629 37.5687 73.8629 38.9647 72.8311 39.4805 71.4049 39.4805ZM89.4306 23.7308C83.8468 23.7308 80.5694 28.1917 80.5694 33.8361 80.5694 39.5109 83.8468 43.9414 89.4306 43.9414 95.0446 43.9414 98.2917 39.5109 98.2917 33.8361 98.2917 28.1917 95.0446 23.7308 89.4306 23.7308ZM89.4306 39.3288C86.6994 39.3288 85.3338 36.8708 85.3338 33.8361 85.3338 30.8015 86.6994 28.3738 89.4306 28.3738 92.1617 28.3738 93.5577 30.8318 93.5577 33.8361 93.5577 36.9011 92.1617 39.3288 89.4306 39.3288ZM108.579 31.8029 107.911 31.6512C106.273 31.3174 104.968 30.8925 104.968 29.709 104.968 28.4345 106.212 27.9186 107.305 27.9186 108.811 27.9423 110.24 28.5908 111.25 29.709L114.254 26.7351C112.888 25.1874 110.673 23.7005 107.213 23.7005 103.147 23.7005 100.052 25.9764 100.052 29.7697 100.052 33.2292 102.54 34.9286 105.575 35.5659L106.242 35.7176C108.761 36.2335 109.702 36.628 109.702 37.8418 109.702 38.995 108.67 39.7537 107.092 39.7537 105.211 39.7537 103.511 38.9343 102.206 37.2653L99.1414 40.2999C100.841 42.3331 102.995 43.9111 107.153 43.9111 110.764 43.9111 114.618 41.8476 114.618 37.6294 114.679 33.2292 111.341 32.3795 108.579 31.8029ZM125.421 39.3288C123.297 39.3288 121.082 37.5687 121.082 33.7147 121.082 30.2856 123.145 28.3738 125.3 28.3738 126.999 28.3738 128.001 29.1628 128.79 30.5284L132.674 27.9489C130.732 25.0054 128.426 23.7612 125.239 23.7612 119.413 23.7612 116.257 28.2828 116.257 33.7451 116.257 39.4805 119.747 43.9718 125.179 43.9718 129.002 43.9718 130.823 42.6366 132.795 39.784L128.881 37.1439C128.092 38.4184 127.242 39.3288 125.421 39.3288ZM145.632 24.2164 145.632 31.3174 139.775 31.3174 139.775 24.2164 134.707 24.2164 134.707 43.5166 139.775 43.5166 139.775 35.8997 145.632 35.8997 145.632 43.5166 150.7 43.5166 150.7 24.2164 145.632 24.2164Z" fill="#ED0007" fill-rule="evenodd" fill-opacity="1" transform="matrix(1 0 0 1.00282 -1 9.05397)"/><path d="M33.9272 19.3002C25.849 19.3002 19.3002 25.849 19.3002 33.9272 19.3002 42.0054 25.849 48.5541 33.9272 48.5541 42.0054 48.5541 48.5541 42.0054 48.5541 33.9272 48.5498 25.8507 42.0035 19.3046 33.9272 19.3002ZM33.9272 47.1885C26.6031 47.1885 20.6658 41.2512 20.6658 33.9272 20.6658 26.6031 26.6031 20.6658 33.9272 20.6658 41.2512 20.6658 47.1885 26.6031 47.1885 33.9272 47.1809 41.2482 41.2482 47.1809 33.9272 47.1885Z" fill="#000000" fill-rule="nonzero" fill-opacity="1" transform="matrix(1 0 0 1.00282 -1 9.05397)"/><path d="M39.9661 24.7929 38.9647 24.7929 38.9647 29.8001 28.92 29.8001 28.92 24.7929 27.8883 24.7929C22.8435 28.1219 21.4527 34.9101 24.7816 39.9549 25.5965 41.1896 26.6534 42.2466 27.8883 43.0614L28.92 43.0614 28.92 38.0543 38.9647 38.0543 38.9647 43.0614 39.9661 43.0614C45.0109 39.7324 46.4016 32.9443 43.0726 27.8995 42.2578 26.6647 41.2009 25.6078 39.9661 24.7929ZM27.5241 41.0889C23.5688 37.5739 23.2117 31.5183 26.7267 27.5629 26.9766 27.2817 27.2428 27.0154 27.5241 26.7654ZM38.9647 36.6583 28.92 36.6583 28.92 31.1657 38.9647 31.1657ZM40.3302 41.0586 40.3302 26.7654C44.2771 30.3118 44.6018 36.3864 41.0555 40.3333 40.8267 40.5879 40.5848 40.83 40.3302 41.0586Z" fill="#000000" fill-rule="nonzero" fill-opacity="1" transform="matrix(1 0 0 1.00282 -1 9.05397)"/></g></g></g></g></g></svg>